<?xml version="1.0" encoding="UTF-8" standalone="no"?>
<!DOCTYPE svg PUBLIC "-//W3C//DTD SVG 1.1//EN" "http://www.w3.org/Graphics/SVG/1.1/DTD/svg11.dtd">
<svg xmlns="http://www.w3.org/2000/svg" version="1.1" viewBox="0.00 0.00 628.00 400.00">
<path stroke="#5f1569" stroke-width="2.00" fill="none" stroke-linecap="butt" vector-effect="non-scaling-stroke" d="
  M 442.71 229.05
  Q 442.46 230.45 442.78 231.76"
/>
<path fill="#0e30f2" d="
  M 600.54 275.79
  C 412.54 275.76 219.77 275.71 29.75 275.80
  Q 26.37 275.80 20.53 274.51
  C 12.10 272.64 6.16 269.34 3.58 260.79
  Q 2.41 256.93 2.45 250.51
  Q 2.97 172.88 3.58 121.31
  Q 3.65 115.58 5.40 110.89
  Q 6.69 107.46 10.19 105.05
  Q 16.02 101.03 23.50 101.03
  Q 309.87 100.94 596.75 100.99
  Q 603.48 100.99 611.14 103.33
  C 622.01 106.65 625.44 114.25 625.38 124.99
  Q 625.02 188.77 624.63 250.74
  C 624.58 258.71 624.68 264.49 618.48 270.39
  Q 614.92 273.78 609.53 275.06
  Q 606.44 275.79 600.54 275.79
  Z
  M 25.01 268.62
  Q 27.85 269.06 30.72 269.06
  Q 307.85 268.98 603.30 269.06
  C 612.44 269.06 617.32 264.37 617.37 254.95
  Q 617.72 187.93 618.11 121.19
  C 618.18 109.73 607.54 107.69 598.50 107.69
  Q 452.45 107.80 305.12 107.76
  Q 164.44 107.72 23.75 107.65
  Q 14.84 107.64 11.74 114.72
  Q 10.43 117.71 10.45 124.31
  Q 10.56 189.43 9.82 254.50
  Q 9.74 261.48 14.89 265.49
  C 17.44 267.47 21.76 268.11 25.01 268.62
  Z"
/>
<path fill="#0e30f2" d="
  M 267.22 188.56
  Q 268.00 188.08 268.32 187.17
  Q 278.63 158.05 289.69 127.35
  Q 290.79 124.28 292.27 120.97
  Q 292.82 119.74 294.17 119.79
  L 299.51 120.02
  Q 300.84 120.07 300.40 121.33
  L 270.06 208.31
  A 1.59 1.58 -78.9 0 1 268.47 209.38
  L 265.35 209.19
  A 0.66 0.64 -7.4 0 1 264.78 208.76
  L 246.92 158.53
  Q 246.49 157.31 247.48 156.47
  L 251.73 152.89
  Q 252.75 152.04 253.22 153.27
  L 266.66 188.38
  Q 266.83 188.81 267.22 188.56
  Z"
/>
<path fill="#0e30f2" d="
  M 71.19 145.60
  C 67.28 143.89 62.87 145.80 61.81 149.96
  Q 59.94 157.36 65.27 162.24
  Q 70.64 167.16 76.36 172.51
  C 84.67 180.27 88.71 188.84 83.20 199.82
  C 79.57 207.05 72.78 210.19 64.66 208.82
  C 57.67 207.63 52.17 200.09 49.87 193.85
  Q 49.82 193.71 49.93 193.61
  Q 52.63 191.08 55.74 189.16
  Q 55.84 189.10 55.89 189.20
  Q 58.32 194.38 61.62 198.01
  C 67.41 204.37 76.58 199.86 77.62 192.20
  C 78.48 185.85 75.58 181.55 70.90 177.81
  C 61.15 170.03 50.52 162.03 54.45 147.55
  C 55.90 142.24 60.83 137.12 66.32 136.38
  C 74.86 135.22 80.43 141.07 84.46 147.87
  A 1.26 1.26 0.0 0 1 84.19 149.48
  L 79.66 153.37
  Q 78.84 154.07 78.32 153.12
  Q 75.15 147.33 71.19 145.60
  Z"
/>
<ellipse fill="#0e30f2" cx="0.00" cy="0.00" transform="translate(304.12,154.36) rotate(91.2)" rx="4.17" ry="3.70"/>
<ellipse fill="#0e30f2" cx="0.00" cy="0.00" transform="translate(364.24,154.41) rotate(90.5)" rx="4.22" ry="3.79"/>
<ellipse fill="#0e30f2" cx="0.00" cy="0.00" transform="translate(524.10,154.35) rotate(86.1)" rx="4.19" ry="3.68"/>
<rect fill="#0e30f2" x="375.76" y="151.21" width="4.50" height="57.28" rx="1.30"/>
<path fill="#0e30f2" d="
  M 346.79 200.78
  Q 345.91 202.17 344.67 203.15
  C 333.75 211.80 320.19 206.97 315.82 194.20
  C 312.72 185.12 315.28 174.76 323.08 168.81
  C 328.67 164.55 336.08 164.16 342.09 167.38
  C 347.94 170.52 350.50 174.46 351.85 180.47
  Q 352.43 183.06 352.43 185.59
  Q 352.43 196.58 352.30 204.83
  C 352.16 213.41 347.88 221.09 339.01 223.18
  C 329.42 225.45 318.85 222.07 315.57 211.99
  Q 315.36 211.36 316.02 211.28
  C 317.59 211.10 319.26 210.95 320.36 212.34
  C 321.34 213.59 322.28 214.98 323.53 215.95
  Q 330.04 221.05 338.39 218.63
  C 346.64 216.24 348.50 208.69 347.80 201.03
  A 0.55 0.55 0.0 0 0 346.79 200.78
  Z
  M 333.0266 203.0500
  A 16.43 14.71 92.0 0 0 348.3010 187.1434
  A 16.43 14.71 92.0 0 0 334.1734 170.2100
  A 16.43 14.71 92.0 0 0 318.8990 186.1166
  A 16.43 14.71 92.0 0 0 333.0266 203.0500
  Z"
/>
<path fill="#0e30f2" d="
  M 420.36 201.39
  C 417.17 207.11 409.59 209.41 403.14 208.04
  Q 398.81 207.12 395.37 203.78
  Q 387.77 196.38 388.70 184.60
  C 389.47 174.71 396.80 165.32 407.20 165.29
  Q 414.98 165.26 420.03 170.68
  C 425.52 176.58 426.54 182.29 426.53 190.90
  Q 426.52 200.04 426.43 207.65
  A 1.09 1.09 0.0 0 1 425.25 208.72
  L 422.79 208.53
  Q 421.87 208.45 421.92 207.53
  Q 422.11 204.47 421.83 201.69
  Q 421.57 199.22 420.36 201.39
  Z
  M 406.8237 203.8208
  A 16.78 14.24 91.9 0 0 421.6122 187.5221
  A 16.78 14.24 91.9 0 0 407.9363 170.2792
  A 16.78 14.24 91.9 0 0 393.1478 186.5779
  A 16.78 14.24 91.9 0 0 406.8237 203.8208
  Z"
/>
<path fill="#0e30f2" d="
  M 567.67 201.11
  A 0.49 0.48 54.5 0 0 566.79 200.96
  Q 562.30 208.02 553.96 208.33
  C 547.12 208.59 542.12 205.68 538.53 200.04
  C 532.69 190.89 533.35 178.84 541.05 170.67
  Q 547.13 164.23 556.59 165.64
  C 563.46 166.66 568.72 172.29 570.99 178.54
  Q 572.72 183.32 572.53 191.44
  Q 572.34 199.39 572.53 207.46
  Q 572.56 208.73 571.29 208.74
  L 569.25 208.76
  Q 567.84 208.77 567.94 207.36
  Q 568.24 203.49 567.67 201.11
  Z
  M 552.6058 203.8613
  A 16.86 14.24 92.7 0 0 567.6242 187.6908
  A 16.86 14.24 92.7 0 0 554.1942 170.1787
  A 16.86 14.24 92.7 0 0 539.1758 186.3492
  A 16.86 14.24 92.7 0 0 552.6058 203.8613
  Z"
/>
<path fill="#0e30f2" d="
  M 141.38 202.27
  Q 139.18 200.04 139.23 203.17
  L 139.55 222.68
  Q 139.57 223.86 138.38 223.90
  L 136.30 223.96
  Q 134.93 224.01 134.95 222.64
  Q 135.29 201.75 135.23 185.20
  C 135.19 173.95 143.62 165.13 154.91 165.47
  C 161.92 165.67 168.04 171.08 170.80 177.38
  C 174.99 186.97 172.61 197.71 164.88 204.57
  Q 160.70 208.29 155.82 208.54
  C 151.60 208.75 145.56 207.54 142.90 204.02
  Q 142.18 203.08 141.38 202.27
  Z
  M 153.3521 204.3569
  A 17.08 14.69 91.1 0 0 168.3673 187.5620
  A 17.08 14.69 91.1 0 0 154.0079 170.2031
  A 17.08 14.69 91.1 0 0 138.9927 186.9980
  A 17.08 14.69 91.1 0 0 153.3521 204.3569
  Z"
/>
<path fill="#0e30f2" d="
  M 185.19 188.23
  C 185.26 194.51 189.03 201.76 195.55 203.59
  C 203.04 205.70 209.06 202.14 212.82 195.55
  Q 213.60 194.19 214.89 195.06
  L 215.45 195.43
  A 1.99 1.98 -59.6 0 1 216.11 197.99
  Q 209.69 210.54 195.03 207.93
  C 187.84 206.65 182.97 198.92 181.49 192.20
  Q 179.90 184.99 183.10 177.13
  Q 188.29 164.39 201.37 165.54
  C 211.75 166.45 218.02 176.47 218.02 186.25
  A 0.77 0.76 0.0 0 1 217.25 187.01
  L 186.37 187.04
  A 1.18 1.18 0.0 0 0 185.19 188.23
  Z
  M 186.43 183.15
  L 212.95 183.11
  A 0.14 0.14 0.0 0 0 213.09 182.97
  L 213.09 182.95
  A 13.24 12.92 -0.1 0 0 199.83 170.05
  L 199.51 170.05
  A 13.24 12.92 -0.1 0 0 186.29 182.99
  L 186.29 183.01
  A 0.14 0.14 0.0 0 0 186.43 183.15
  Z"
/>
<path fill="#0e30f2" d="
  M 483.00 194.33
  Q 484.85 199.48 490.15 202.60
  Q 493.98 204.86 499.88 204.20
  Q 505.71 203.54 509.78 198.28
  Q 511.05 196.64 512.52 198.10
  L 512.87 198.45
  Q 514.58 200.17 512.92 201.94
  Q 506.88 208.36 498.68 208.74
  C 484.97 209.36 476.36 198.31 477.53 185.07
  C 478.40 175.32 485.74 165.77 496.30 165.55
  Q 507.93 165.32 513.76 173.85
  Q 514.54 174.99 513.42 175.78
  L 512.29 176.58
  Q 511.23 177.32 510.36 176.37
  C 496.38 161.01 476.39 175.93 483.00 194.33
  Z"
/>
<path fill="#0e30f2" d="
  M 235.85 173.27
  C 232.01 176.96 230.28 181.74 230.23 187.04
  Q 230.14 197.60 230.03 207.49
  Q 230.02 208.45 229.06 208.43
  L 226.78 208.38
  Q 225.68 208.35 225.66 207.25
  Q 225.39 194.83 225.72 185.38
  C 225.98 177.58 230.86 169.24 238.17 166.48
  Q 240.58 165.57 242.80 167.12
  Q 243.36 167.52 243.20 168.18
  Q 242.77 169.89 241.54 171.02
  A 1.43 1.42 -64.5 0 1 240.51 171.39
  Q 237.94 171.26 235.85 173.27
  Z"
/>
<path fill="#0e30f2" d="
  M 105.91 203.64
  C 114.82 205.68 120.43 199.35 120.34 190.66
  Q 120.22 178.94 120.35 167.23
  Q 120.36 166.22 121.36 166.26
  L 123.53 166.35
  Q 124.73 166.39 124.74 167.60
  Q 124.74 179.03 124.69 189.39
  C 124.63 200.87 119.68 209.20 107.06 208.33
  C 97.66 207.68 93.56 199.62 93.35 191.20
  Q 93.07 180.40 93.24 167.72
  Q 93.26 166.40 94.58 166.32
  L 96.29 166.21
  Q 97.57 166.13 97.59 167.42
  Q 97.75 179.78 97.73 192.20
  C 97.73 197.19 100.89 202.49 105.91 203.64
  Z"
/>
<path fill="#0e30f2" d="
  M 464.02 180.00
  C 463.35 169.43 446.03 169.25 442.85 177.73
  Q 441.69 180.82 441.61 184.98
  Q 441.40 195.07 441.42 207.22
  A 1.52 1.51 89.8 0 1 439.92 208.74
  L 438.26 208.75
  Q 436.89 208.75 436.90 207.38
  Q 436.95 196.03 436.87 185.62
  Q 436.86 184.09 437.73 179.24
  C 438.78 173.39 442.87 168.31 448.81 167.01
  C 461.09 164.32 468.14 171.12 468.38 183.15
  Q 468.63 195.99 468.52 207.59
  Q 468.50 208.80 467.29 208.76
  L 465.50 208.69
  Q 464.24 208.64 464.25 207.38
  Q 464.42 186.31 464.02 180.00
  Z"
/>
<rect fill="#0e30f2" x="-2.22" y="-20.56" transform="translate(304.13,187.93) rotate(0.1)" width="4.44" height="41.12" rx="1.38"/>
<rect fill="#0e30f2" x="362.02" y="167.38" width="4.46" height="41.12" rx="1.42"/>
<rect fill="#0e30f2" x="521.94" y="167.54" width="4.40" height="40.82" rx="1.39"/>
<path fill="#e6cd37" d="
  M 308.92 230.53
  Q 301.03 231.60 295.70 231.55
  C 285.62 231.46 275.47 231.96 265.41 231.97
  Q 158.99 232.12 55.60 231.98
  C 53.36 231.98 51.30 231.67 49.20 231.22
  A 0.34 0.34 0.0 0 1 49.07 230.62
  Q 51.52 228.74 54.25 228.79
  C 69.18 229.06 83.90 228.77 98.75 228.84
  Q 129.47 228.98 166.50 228.96
  Q 215.08 228.94 262.32 228.95
  C 269.62 228.95 276.96 229.78 284.16 229.61
  Q 296.86 229.30 308.97 230.02
  Q 309.04 230.03 309.05 230.10
  L 309.06 230.35
  Q 309.07 230.51 308.92 230.53
  Z"
/>
<path fill="#0d16bd" d="
  M 442.71 229.05
  Q 442.46 230.45 442.78 231.76
  Q 437.53 231.73 432.25 231.74
  Q 372.87 231.88 313.50 231.85
  Q 312.30 231.85 310.63 230.52
  Q 310.18 230.17 310.66 229.87
  Q 311.86 229.09 313.00 229.09
  Q 359.24 228.85 442.71 229.05
  Z"
/>
<path fill="#b11314" d="
  M 442.71 229.05
  L 570.99 229.02
  Q 572.27 229.02 572.63 230.25
  Q 572.75 230.66 572.54 231.09
  A 0.86 0.85 -76.3 0 1 571.78 231.56
  L 442.78 231.76
  Q 442.46 230.45 442.71 229.05
  Z"
/>
<circle fill="#0d16bd" cx="508.93" cy="240.96" r="1.05"/>
<path fill="#0d16bd" d="
  M 545.10 245.15
  A 0.68 0.68 0.0 0 0 546.12 244.54
  L 546.00 240.65
  A 0.57 0.57 0.0 0 1 546.53 240.06
  L 546.96 240.03
  Q 547.26 240.01 547.27 240.31
  Q 547.58 247.98 547.38 250.62
  C 547.25 252.47 545.75 254.76 543.81 255.40
  C 538.05 257.27 534.59 250.82 537.65 246.31
  Q 540.29 242.44 545.10 245.15
  Z
  M 541.5985 254.5194
  A 4.58 4.07 93.9 0 0 545.9706 250.2268
  A 4.58 4.07 93.9 0 0 542.2215 245.3806
  A 4.58 4.07 93.9 0 0 537.8494 249.6732
  A 4.58 4.07 93.9 0 0 541.5985 254.5194
  Z"
/>
<ellipse fill="#0d16bd" cx="0.00" cy="0.00" transform="translate(119.11,241.40) rotate(79.1)" rx="1.21" ry="1.00"/>
<path fill="#0d16bd" d="
  M 136.44 246.04
  Q 136.63 246.16 136.84 246.18
  Q 137.95 246.24 136.99 246.79
  Q 136.73 246.94 136.46 247.07
  A 1.29 1.28 -8.9 0 0 135.73 248.07
  C 135.44 250.35 135.03 254.86 138.25 255.38
  Q 138.44 255.41 138.41 255.59
  L 138.38 255.92
  A 0.38 0.38 0.0 0 1 137.96 256.25
  Q 134.20 255.92 134.15 252.07
  Q 134.08 246.46 134.08 241.05
  A 0.72 0.71 -89.2 0 1 134.80 240.34
  L 135.06 240.34
  A 0.36 0.35 0.8 0 1 135.42 240.70
  Q 135.41 243.38 135.87 245.25
  Q 135.99 245.75 136.44 246.04
  Z"
/>
<path fill="#0d16bd" d="
  M 176.05 244.78
  Q 175.97 243.59 175.56 242.39
  Q 175.21 241.38 175.97 240.74
  Q 176.93 239.92 176.95 241.18
  Q 177.00 245.33 177.00 249.34
  Q 176.99 252.23 176.22 253.52
  C 173.77 257.60 167.88 256.79 166.44 252.39
  C 164.69 247.02 169.54 242.09 174.96 245.44
  A 0.72 0.72 0.0 0 0 176.05 244.78
  Z
  M 171.7556 254.8580
  A 4.57 4.02 88.3 0 0 175.6382 250.1707
  A 4.57 4.02 88.3 0 0 171.4844 245.7220
  A 4.57 4.02 88.3 0 0 167.6018 250.4093
  A 4.57 4.02 88.3 0 0 171.7556 254.8580
  Z"
/>
<circle fill="#0d16bd" cx="218.24" cy="241.31" r="0.97"/>
<path fill="#0d16bd" d="
  M 249.93 244.67
  L 249.68 241.04
  Q 249.64 240.56 250.09 240.38
  L 250.45 240.24
  Q 251.01 240.01 251.03 240.62
  Q 251.29 247.31 250.93 251.44
  C 250.52 256.10 244.25 257.79 241.43 254.09
  C 239.15 251.11 240.04 247.15 242.98 244.97
  C 245.42 243.16 246.92 244.99 249.20 245.34
  Q 249.98 245.46 249.93 244.67
  Z
  M 245.4324 254.9149
  A 4.62 3.98 92.7 0 0 249.6256 250.4875
  A 4.62 3.98 92.7 0 0 245.8676 245.6851
  A 4.62 3.98 92.7 0 0 241.6744 250.1125
  A 4.62 3.98 92.7 0 0 245.4324 254.9149
  Z"
/>
<circle fill="#0d16bd" cx="303.04" cy="241.27" r="1.02"/>
<ellipse fill="#0d16bd" cx="0.00" cy="0.00" transform="translate(349.21,241.28) rotate(77.9)" rx="1.03" ry="0.91"/>
<ellipse fill="#0d16bd" cx="0.00" cy="0.00" transform="translate(442.38,241.35) rotate(58.3)" rx="1.06" ry="0.92"/>
<path fill="#0d16bd" d="
  M 454.59 245.39
  A 0.85 0.84 -88.7 0 0 455.62 244.40
  Q 455.22 242.49 455.65 240.70
  Q 455.72 240.40 456.02 240.47
  L 456.56 240.59
  Q 456.62 240.60 456.61 240.66
  Q 456.42 245.57 456.69 249.91
  C 456.84 252.38 455.40 255.21 452.82 255.90
  C 444.96 258.01 442.85 245.27 451.19 244.29
  C 452.42 244.15 453.43 245.10 454.59 245.39
  Z
  M 451.4254 254.8666
  A 4.57 4.03 87.8 0 0 455.2770 250.1453
  A 4.57 4.03 87.8 0 0 451.0746 245.7334
  A 4.57 4.03 87.8 0 0 447.2230 250.4547
  A 4.57 4.03 87.8 0 0 451.4254 254.8666
  Z"
/>
<path fill="#0d16bd" d="
  M 482.10 245.42
  Q 482.14 243.05 482.20 240.51
  Q 482.20 240.45 482.26 240.44
  L 482.57 240.42
  Q 483.14 240.38 483.18 240.95
  Q 483.51 245.95 483.15 251.25
  C 482.92 254.57 480.17 256.51 476.93 256.05
  C 472.60 255.44 471.30 249.10 474.07 246.19
  Q 477.38 242.72 481.38 245.77
  Q 482.08 246.30 482.10 245.42
  Z
  M 478.0281 254.8900
  A 4.63 4.09 89.9 0 0 482.1100 250.2529
  A 4.63 4.09 89.9 0 0 478.0119 245.6300
  A 4.63 4.09 89.9 0 0 473.9300 250.2671
  A 4.63 4.09 89.9 0 0 478.0281 254.8900
  Z"
/>
<path fill="#0d16bd" d="
  M 65.44 243.34
  C 65.10 248.16 74.24 249.66 70.13 254.87
  C 68.17 257.35 64.54 256.16 63.30 253.54
  Q 63.10 253.11 63.56 253.00
  Q 63.75 252.95 63.95 253.01
  C 65.08 253.38 65.54 254.65 67.14 255.03
  Q 67.77 255.18 68.27 254.77
  C 70.91 252.59 69.08 249.85 66.85 248.46
  Q 63.48 246.36 64.18 242.97
  C 64.49 241.46 66.27 240.22 67.77 240.63
  Q 69.55 241.10 70.55 242.69
  Q 70.86 243.18 70.35 243.46
  L 70.09 243.60
  A 0.45 0.44 55.4 0 1 69.53 243.49
  Q 67.70 241.26 65.95 242.44
  Q 65.48 242.76 65.44 243.34
  Z"
/>
<ellipse fill="#0d16bd" cx="0.00" cy="0.00" transform="translate(285.69,241.37) rotate(19.1)" rx="1.10" ry="0.85"/>
<rect fill="#0d16bd" x="306.44" y="240.68" width="1.30" height="15.30" rx="0.63"/>
<path fill="#0d16bd" d="
  M 391.43 242.13
  A 1.57 1.57 0.0 0 0 388.92 242.94
  C 387.56 248.08 398.34 249.14 393.45 254.97
  C 391.63 257.14 387.96 256.40 386.92 253.97
  Q 386.14 252.14 387.77 253.29
  Q 388.54 253.83 389.24 254.42
  A 2.22 2.21 31.7 0 0 392.69 253.61
  C 394.86 248.69 384.21 247.43 388.02 242.11
  Q 390.30 238.91 393.62 242.02
  A 1.22 1.19 -65.7 0 1 393.99 243.04
  L 393.94 243.47
  A 0.38 0.37 23.1 0 1 393.33 243.71
  L 391.43 242.13
  Z"
/>
<path fill="#0d16bd" d="
  M 493.12 249.96
  Q 492.98 252.77 492.68 255.50
  Q 492.68 255.57 492.61 255.57
  L 492.35 255.56
  Q 492.08 255.56 492.08 255.29
  L 492.01 241.50
  A 0.75 0.74 88.4 0 1 492.71 240.75
  C 495.13 240.60 500.14 240.44 500.51 243.90
  Q 501.03 248.87 496.02 248.85
  Q 494.93 248.85 493.86 249.08
  Q 493.15 249.23 493.12 249.96
  Z
  M 493.11 243.29
  L 493.17 246.31
  A 1.23 1.23 0.0 0 0 494.42 247.51
  L 496.40 247.47
  A 2.65 2.37 -1.1 0 0 499.01 245.05
  L 498.99 244.31
  A 2.65 2.37 -1.1 0 0 496.30 242.00
  L 494.32 242.03
  A 1.23 1.23 0.0 0 0 493.11 243.29
  Z"
/>
<path fill="#0d16bd" d="
  M 276.76 251.68
  A 0.52 0.51 -44.8 0 0 277.72 251.68
  L 281.57 241.75
  Q 281.80 241.17 282.41 241.09
  L 282.69 241.06
  Q 283.38 240.98 283.13 241.63
  Q 280.65 248.19 277.81 255.21
  Q 277.67 255.56 277.31 255.65
  A 0.45 0.44 -17.2 0 1 276.79 255.38
  L 271.27 241.55
  Q 271.03 240.96 271.67 240.97
  L 272.13 240.98
  A 0.92 0.90 -8.9 0 1 272.96 241.57
  L 276.76 251.68
  Z"
/>
<path fill="#0d16bd" d="
  M 526.48 255.75
  A 2.43 2.43 0.0 0 1 523.79 253.61
  L 523.37 250.04
  A 5.47 5.19 83.4 0 1 527.90 244.01
  L 527.90 244.01
  A 5.47 5.19 83.4 0 1 533.68 248.85
  L 534.10 252.42
  A 2.43 2.43 0.0 0 1 531.96 255.11
  L 526.48 255.75
  Z
  M 528.4913 254.4599
  A 4.49 3.95 89.6 0 0 532.4099 249.9424
  A 4.49 3.95 89.6 0 0 528.4287 245.4801
  A 4.49 3.95 89.6 0 0 524.5101 249.9976
  A 4.49 3.95 89.6 0 0 528.4913 254.4599
  Z"
/>
<path fill="#0d16bd" d="
  M 557.89 254.86
  C 557.06 255.13 556.57 255.68 555.67 255.74
  Q 550.52 256.06 549.98 250.58
  C 549.13 241.95 560.99 241.90 560.34 250.47
  Q 560.16 252.74 560.26 254.91
  Q 560.28 255.52 559.68 255.64
  Q 559.40 255.69 559.28 255.44
  Q 558.84 254.55 557.89 254.86
  Z
  M 555.1008 254.4894
  A 4.51 3.93 89.1 0 0 558.9595 249.9183
  A 4.51 3.93 89.1 0 0 554.9592 245.4706
  A 4.51 3.93 89.1 0 0 551.1005 250.0417
  A 4.51 3.93 89.1 0 0 555.1008 254.4894
  Z"
/>
<path fill="#0d16bd" d="
  M 75.44 252.07
  C 75.79 255.76 80.67 256.14 81.33 252.47
  Q 81.91 249.29 81.56 245.08
  A 0.68 0.67 -6.9 0 1 82.13 244.36
  L 82.49 244.30
  A 0.30 0.30 0.0 0 1 82.84 244.56
  Q 83.40 248.84 82.72 252.65
  C 81.89 257.29 75.37 257.42 74.31 253.05
  Q 73.46 249.50 74.22 244.58
  Q 74.29 244.15 74.66 244.39
  L 74.89 244.53
  A 0.80 0.77 -73.0 0 1 75.25 245.23
  Q 75.12 248.75 75.44 252.07
  Z"
/>
<path fill="#0d16bd" d="
  M 87.39 255.77
  Q 87.10 257.55 87.39 259.46
  A 0.56 0.56 0.0 0 1 86.95 260.09
  L 86.62 260.16
  A 0.40 0.40 0.0 0 1 86.14 259.78
  Q 85.96 254.74 86.01 249.76
  C 86.05 245.17 91.13 242.51 94.64 245.61
  C 99.73 250.11 94.94 259.20 88.48 255.26
  Q 87.56 254.70 87.39 255.77
  Z
  M 91.3600 254.9298
  A 4.58 4.01 89.5 0 0 95.3298 250.3150
  A 4.58 4.01 89.5 0 0 91.2800 245.7702
  A 4.58 4.01 89.5 0 0 87.3102 250.3850
  A 4.58 4.01 89.5 0 0 91.3600 254.9298
  Z"
/>
<path fill="#0d16bd" d="
  M 101.92 249.98
  A 1.05 1.05 0.0 0 0 100.74 251.11
  Q 100.94 253.63 102.95 254.61
  C 105.65 255.92 106.63 254.04 108.62 252.66
  Q 109.68 251.93 109.21 253.13
  Q 107.82 256.64 103.76 256.06
  C 96.71 255.05 98.36 242.91 105.35 244.37
  Q 109.35 245.20 109.72 249.46
  A 0.78 0.78 0.0 0 1 108.96 250.31
  Q 105.14 250.40 101.92 249.98
  Z
  M 101.64 249.05
  L 107.54 249.27
  A 0.43 0.43 0.0 0 0 107.98 248.85
  L 107.99 248.70
  A 3.13 2.72 2.1 0 0 104.96 245.87
  L 104.46 245.85
  A 3.13 2.72 2.1 0 0 101.23 248.46
  L 101.23 248.61
  A 0.43 0.43 0.0 0 0 101.64 249.05
  Z"
/>
<path fill="#0d16bd" d="
  M 116.76 245.55
  Q 114.11 246.56 113.91 248.48
  Q 113.58 251.72 113.47 255.77
  A 0.42 0.42 0.0 0 1 113.01 256.17
  L 112.67 256.14
  A 0.59 0.59 0.0 0 1 112.14 255.61
  C 111.72 251.41 111.20 245.84 116.37 244.37
  Q 116.69 244.28 116.78 244.60
  L 116.93 245.21
  A 0.29 0.28 -19.6 0 1 116.76 245.55
  Z"
/>
<path fill="#0d16bd" d="
  M 142.83 250.23
  Q 142.05 251.27 142.66 252.53
  C 144.66 256.70 147.86 254.82 150.24 252.58
  Q 150.82 252.03 150.78 252.83
  C 150.51 257.87 139.81 257.56 141.02 249.45
  C 142.12 242.03 150.74 242.78 151.41 249.41
  A 0.94 0.94 0.0 0 1 150.41 250.44
  L 143.36 249.99
  Q 143.03 249.96 142.83 250.23
  Z
  M 143.21 249.00
  L 149.30 249.20
  A 0.26 0.26 0.0 0 0 149.57 248.95
  L 149.58 248.65
  A 3.09 2.72 1.9 0 0 146.58 245.83
  L 146.14 245.81
  A 3.09 2.72 1.9 0 0 142.97 248.43
  L 142.96 248.73
  A 0.26 0.26 0.0 0 0 143.21 249.00
  Z"
/>
<path fill="#0d16bd" d="
  M 180.98 250.71
  C 180.65 254.15 184.97 256.56 187.55 253.69
  Q 188.21 252.95 189.04 252.39
  Q 189.54 252.05 189.46 252.66
  C 188.89 256.58 183.70 256.98 181.25 254.87
  C 177.52 251.67 179.81 243.05 185.53 244.35
  Q 190.09 245.38 189.78 249.66
  A 0.76 0.75 2.8 0 1 189.00 250.36
  L 181.60 250.17
  A 0.60 0.59 3.5 0 0 180.98 250.71
  Z
  M 182.05 249.04
  L 187.52 249.22
  A 0.62 0.62 0.0 0 0 188.16 248.62
  L 188.17 248.48
  A 3.15 2.48 1.9 0 0 185.10 245.90
  L 184.68 245.88
  A 3.15 2.48 1.9 0 0 181.45 248.26
  L 181.45 248.40
  A 0.62 0.62 0.0 0 0 182.05 249.04
  Z"
/>
<path fill="#0d16bd" d="
  M 207.39 246.59
  C 203.14 249.56 207.45 258.69 213.88 253.21
  A 0.25 0.24 57.2 0 1 214.26 253.30
  L 214.38 253.58
  A 0.87 0.85 53.8 0 1 214.25 254.50
  C 211.62 257.57 206.45 256.48 204.92 252.85
  C 202.44 246.95 208.87 241.46 214.10 245.66
  A 1.48 1.46 17.4 0 1 214.65 246.69
  L 214.69 247.15
  A 0.33 0.32 15.7 0 1 214.17 247.44
  Q 210.27 244.57 207.39 246.59
  Z"
/>
<path fill="#0d16bd" d="
  M 224.72 256.08
  A 2.47 2.47 0.0 0 1 221.99 253.91
  L 221.61 250.49
  A 5.69 5.26 83.6 0 1 226.20 244.25
  L 226.20 244.25
  A 5.69 5.26 83.6 0 1 232.06 249.31
  L 232.45 252.73
  A 2.47 2.47 0.0 0 1 230.27 255.46
  L 224.72 256.08
  Z
  M 226.6649 254.8390
  A 4.54 3.81 91.2 0 0 230.5692 250.3798
  A 4.54 3.81 91.2 0 0 226.8551 245.7610
  A 4.54 3.81 91.2 0 0 222.9508 250.2202
  A 4.54 3.81 91.2 0 0 226.6649 254.8390
  Z"
/>
<path fill="#0d16bd" d="
  M 255.16 251.82
  Q 256.03 255.06 259.41 255.03
  A 1.66 1.64 -64.4 0 0 260.46 254.65
  L 262.70 252.78
  Q 264.04 251.67 263.41 253.29
  Q 262.51 255.60 259.93 256.03
  C 251.67 257.43 251.40 243.79 259.27 244.30
  Q 261.73 244.46 262.88 246.64
  Q 263.13 247.12 263.61 248.02
  Q 264.82 250.30 262.24 250.28
  L 256.41 250.22
  A 1.28 1.27 -7.2 0 0 255.16 251.82
  Z
  M 257.51 245.91
  A 1.09 1.09 0.0 0 0 256.62 246.29
  L 255.75 247.31
  A 1.09 1.09 0.0 0 0 256.60 249.11
  L 261.13 249.04
  A 1.09 1.09 0.0 0 0 261.80 247.11
  L 260.83 246.31
  A 1.09 1.09 0.0 0 0 260.19 246.06
  L 257.51 245.91
  Z"
/>
<path fill="#0d16bd" d="
  M 297.05 254.95
  C 296.22 255.24 295.63 255.87 294.68 255.95
  Q 291.65 256.22 289.96 253.88
  Q 287.00 249.79 290.10 246.25
  Q 293.00 242.93 296.73 245.04
  C 300.69 247.29 299.69 251.22 299.64 254.91
  C 299.58 259.18 296.01 261.24 292.05 259.97
  Q 290.12 259.36 289.41 257.64
  Q 289.07 256.82 289.83 257.27
  C 290.85 257.87 291.84 258.82 293.00 259.09
  Q 296.60 259.95 298.23 256.23
  A 0.95 0.95 0.0 0 0 297.05 254.95
  Z
  M 293.7924 254.5963
  A 4.43 4.05 94.5 0 0 298.1775 250.4978
  A 4.43 4.05 94.5 0 0 294.4876 245.7637
  A 4.43 4.05 94.5 0 0 290.1025 249.8622
  A 4.43 4.05 94.5 0 0 293.7924 254.5963
  Z"
/>
<path fill="#0d16bd" d="
  M 319.90 255.48
  A 1.59 1.58 48.6 0 0 318.39 255.38
  C 313.78 257.50 310.28 254.79 310.20 250.19
  C 310.15 247.24 313.02 243.51 316.38 244.32
  C 321.93 245.66 321.21 250.99 321.18 255.42
  Q 321.17 256.29 320.43 255.82
  L 319.90 255.48
  Z
  M 315.4773 254.8067
  A 4.50 3.93 92.2 0 0 319.5771 250.4609
  A 4.50 3.93 92.2 0 0 315.8227 245.8133
  A 4.50 3.93 92.2 0 0 311.7229 250.1591
  A 4.50 3.93 92.2 0 0 315.4773 254.8067
  Z"
/>
<path fill="#0d16bd" d="
  M 342.21 245.87
  C 332.98 244.62 337.13 260.19 345.09 253.32
  A 0.35 0.35 0.0 0 1 345.66 253.51
  L 345.78 254.02
  A 0.30 0.28 -29.5 0 1 345.69 254.30
  C 341.02 258.71 333.93 255.11 335.90 248.37
  C 337.16 244.05 342.11 243.08 345.38 245.90
  A 0.92 0.90 -71.0 0 1 345.68 246.53
  L 345.69 246.96
  A 0.36 0.36 0.0 0 1 345.15 247.28
  C 344.21 246.73 343.32 246.02 342.21 245.87
  Z"
/>
<path fill="#0d16bd" d="
  M 361.05 255.28
  C 359.61 255.49 358.60 256.44 357.03 256.11
  C 348.72 254.36 352.96 241.50 360.05 244.81
  C 363.89 246.61 363.39 251.64 363.23 255.20
  Q 363.19 255.95 362.55 255.57
  Q 362.42 255.49 362.27 255.43
  Q 361.68 255.19 361.05 255.28
  Z
  M 357.6666 254.8763
  A 4.57 3.92 92.3 0 0 361.7668 250.4673
  A 4.57 3.92 92.3 0 0 358.0334 245.7437
  A 4.57 3.92 92.3 0 0 353.9332 250.1527
  A 4.57 3.92 92.3 0 0 357.6666 254.8763
  Z"
/>
<path fill="#0d16bd" d="
  M 374.83 252.13
  Q 375.41 253.32 375.90 252.09
  L 378.87 244.58
  Q 378.95 244.40 379.14 244.40
  L 379.50 244.39
  A 0.44 0.43 9.3 0 1 379.92 244.97
  Q 377.34 252.41 374.01 259.48
  Q 373.93 259.63 373.77 259.63
  L 373.35 259.63
  Q 373.17 259.63 373.24 259.46
  C 374.30 257.15 374.87 254.82 373.63 252.40
  Q 371.93 249.11 371.08 245.79
  Q 370.42 243.23 371.95 245.40
  C 373.34 247.38 373.78 249.98 374.83 252.13
  Z"
/>
<path fill="#0d16bd" d="
  M 400.15 250.07
  A 1.51 1.51 0.0 0 0 398.66 252.31
  Q 400.60 255.70 403.41 254.79
  C 404.62 254.39 405.58 253.31 406.59 252.56
  Q 407.15 252.14 407.05 252.83
  C 406.44 256.87 400.87 256.99 398.59 254.46
  C 395.19 250.71 397.64 243.66 403.30 244.39
  C 405.84 244.72 407.26 246.98 407.54 249.34
  Q 407.65 250.33 406.66 250.35
  Q 403.12 250.43 400.15 250.07
  Z
  M 399.68 249.11
  L 405.13 249.28
  A 0.62 0.62 0.0 0 0 405.77 248.68
  L 405.78 248.55
  A 3.05 2.71 1.8 0 0 402.81 245.75
  L 402.21 245.73
  A 3.05 2.71 1.8 0 0 399.08 248.34
  L 399.08 248.47
  A 0.62 0.62 0.0 0 0 399.68 249.11
  Z"
/>
<path fill="#0d16bd" d="
  M 419.37 255.31
  A 0.51 0.50 -14.5 0 0 418.61 254.87
  C 412.81 258.22 407.60 252.28 410.77 246.99
  C 412.45 244.19 416.09 243.59 418.62 245.50
  C 421.61 247.76 420.64 252.28 420.59 255.42
  C 420.52 259.49 417.08 261.09 413.27 260.04
  Q 411.20 259.47 410.71 257.74
  Q 410.43 256.77 411.22 257.40
  C 414.13 259.72 419.25 260.09 419.37 255.31
  Z
  M 419.2763 249.4516
  A 3.55 3.55 0.0 0 0 415.8014 245.8281
  L 415.1216 245.8138
  A 3.55 3.55 0.0 0 0 411.4980 249.2887
  L 411.4637 250.9284
  A 3.55 3.55 0.0 0 0 414.9386 254.5519
  L 415.6184 254.5662
  A 3.55 3.55 0.0 0 0 419.2420 251.0913
  L 419.2763 249.4516
  Z"
/>
<path fill="#0d16bd" d="
  M 468.12 255.25
  C 466.38 255.31 464.97 256.36 463.19 255.94
  C 456.33 254.32 458.80 242.46 465.71 244.45
  C 470.39 245.79 470.17 251.20 469.75 255.25
  Q 469.66 256.10 469.03 255.52
  Q 468.97 255.46 468.89 255.43
  Q 468.52 255.24 468.12 255.25
  Z
  M 464.2904 254.9752
  A 4.62 3.93 92.6 0 0 468.4260 250.5383
  A 4.62 3.93 92.6 0 0 464.7096 245.7448
  A 4.62 3.93 92.6 0 0 460.5740 250.1817
  A 4.62 3.93 92.6 0 0 464.2904 254.9752
  Z"
/>
<path fill="#0d16bd" d="
  M 129.71 246.76
  C 127.64 245.16 124.15 246.07 124.07 249.00
  Q 123.99 252.26 123.94 255.62
  A 0.31 0.31 0.0 0 1 123.63 255.92
  L 123.33 255.93
  Q 123.05 255.93 123.02 255.65
  Q 122.58 251.97 122.95 248.43
  C 123.38 244.47 128.61 243.12 130.78 246.03
  C 132.38 248.16 131.77 252.94 131.64 255.57
  Q 131.62 255.96 131.24 255.90
  L 130.94 255.85
  A 0.47 0.46 -87.0 0 1 130.55 255.41
  L 130.28 247.86
  Q 130.25 247.18 129.71 246.76
  Z"
/>
<path fill="#0d16bd" d="
  M 156.00 248.46
  L 155.62 255.70
  A 0.45 0.44 -88.6 0 1 155.18 256.13
  L 154.90 256.13
  A 0.73 0.73 0.0 0 1 154.17 255.42
  C 154.10 251.80 152.94 244.31 158.98 244.50
  C 164.31 244.67 163.77 252.01 163.34 255.68
  Q 163.31 255.98 163.00 255.99
  L 162.65 256.00
  Q 162.03 256.01 162.02 255.40
  L 161.87 249.02
  Q 161.80 246.18 158.96 246.08
  Q 158.81 246.08 158.61 246.07
  Q 156.12 245.98 156.00 248.46
  Z"
/>
<path fill="#0d16bd" d="
  M 200.16 247.75
  Q 200.14 246.80 199.28 246.41
  C 193.22 243.66 194.04 252.50 193.94 255.30
  Q 193.92 255.72 193.51 255.76
  L 193.26 255.79
  Q 193.01 255.82 192.97 255.57
  C 192.48 252.11 191.82 245.48 196.33 244.69
  Q 201.06 243.86 201.70 248.24
  Q 202.19 251.60 201.53 255.95
  A 0.27 0.26 20.6 0 1 201.12 256.13
  L 200.87 255.96
  Q 200.38 255.64 200.36 255.06
  L 200.16 247.75
  Z"
/>
<path fill="#0d16bd" d="
  M 325.66 248.20
  L 325.06 255.36
  A 0.36 0.36 0.0 0 1 324.70 255.69
  L 324.44 255.69
  Q 324.18 255.69 324.15 255.43
  Q 323.67 250.87 324.23 247.89
  C 324.99 243.80 331.63 243.22 332.67 247.72
  Q 333.24 250.22 332.88 255.36
  A 0.30 0.30 0.0 0 1 332.59 255.64
  L 332.29 255.64
  Q 331.88 255.65 331.85 255.24
  Q 331.66 252.48 331.75 249.87
  C 331.82 247.63 330.52 245.88 328.08 245.93
  A 2.48 2.48 0.0 0 0 325.66 248.20
  Z"
/>
<path fill="#0d16bd" d="
  M 435.72 252.82
  C 434.85 249.96 435.71 244.98 439.43 244.65
  Q 439.81 244.61 439.89 244.99
  Q 439.98 245.44 439.57 245.66
  C 436.38 247.35 436.30 251.81 436.40 254.97
  Q 436.42 255.87 435.98 255.08
  Q 435.67 254.53 435.79 253.85
  Q 435.88 253.33 435.72 252.82
  Z"
/>
<path fill="#0d16bd" d="
  M 508.22 246.74
  Q 508.21 245.13 506.76 245.82
  Q 506.16 246.11 505.74 246.62
  Q 504.44 248.20 504.33 249.97
  Q 504.16 252.73 503.98 255.70
  Q 503.98 255.76 503.91 255.77
  L 503.40 255.81
  Q 503.14 255.83 503.10 255.58
  C 502.51 251.96 502.60 244.02 508.37 244.58
  Q 509.62 244.71 509.60 245.97
  L 509.46 255.44
  Q 509.46 255.76 509.14 255.72
  L 508.84 255.67
  Q 508.29 255.59 508.28 255.03
  L 508.22 246.74
  Z"
/>
<path fill="#0d16bd" d="
  M 516.69 251.77
  Q 517.26 251.41 517.44 250.77
  Q 518.42 247.42 520.15 244.58
  Q 520.22 244.45 520.35 244.53
  L 520.60 244.67
  A 0.69 0.69 0.0 0 1 520.88 245.53
  L 516.92 254.98
  A 0.52 0.52 0.0 0 1 515.97 254.98
  L 512.00 245.86
  A 0.95 0.95 0.0 0 1 512.25 244.76
  L 512.51 244.54
  A 0.27 0.27 0.0 0 1 512.93 244.65
  L 515.80 251.49
  A 0.61 0.61 0.0 0 0 516.69 251.77
  Z"
/>
<rect fill="#0d16bd" x="-0.76" y="-5.53" transform="translate(218.23,250.44) rotate(-0.1)" width="1.52" height="11.06" rx="0.74"/>
<rect fill="#0d16bd" x="-0.73" y="-5.68" transform="translate(303.00,250.49) rotate(-0.4)" width="1.46" height="11.36" rx="0.71"/>
<path fill="#0d16bd" d="
  M 425.02 252.67
  A 1.88 1.87 -75.7 0 0 425.98 254.29
  C 431.88 257.60 431.77 249.12 431.33 245.79
  A 0.84 0.84 0.0 0 1 431.98 244.86
  L 432.26 244.79
  A 0.37 0.37 0.0 0 1 432.71 245.14
  Q 432.92 248.47 432.59 251.89
  Q 432.16 256.36 427.48 256.10
  C 422.53 255.83 423.21 248.14 424.03 244.91
  Q 424.09 244.69 424.30 244.73
  L 424.86 244.84
  Q 424.98 244.86 424.99 244.98
  L 425.02 252.67
  Z"
/>
<rect fill="#0d16bd" x="-0.66" y="-5.44" transform="translate(119.05,250.43) rotate(0.5)" width="1.32" height="10.88" rx="0.59"/>
<rect fill="#0d16bd" x="-0.77" y="-5.42" transform="translate(285.67,250.38) rotate(0.3)" width="1.54" height="10.84" rx="0.74"/>
<rect fill="#0d16bd" x="-0.56" y="-5.39" transform="translate(349.32,250.48) rotate(-0.3)" width="1.12" height="10.78" rx="0.54"/>
<rect fill="#0d16bd" x="-0.57" y="-5.31" transform="translate(442.41,250.41) rotate(-0.2)" width="1.14" height="10.62" rx="0.55"/>
</svg>
